<mxfile host="65bd71144e">
    <diagram id="ABKDwCEezzWPOiy9DfF0" name="Page-1">
        <mxGraphModel dx="867" dy="646" grid="1" gridSize="10" guides="1" tooltips="1" connect="1" arrows="1" fold="1" page="1" pageScale="1" pageWidth="850" pageHeight="1100" math="0" shadow="0">
            <root>
                <mxCell id="0"/>
                <mxCell id="1" parent="0"/>
                <mxCell id="2" value="4. Moduły" style="text;strokeColor=none;fillColor=none;html=1;fontSize=24;fontStyle=1;verticalAlign=middle;align=center;" vertex="1" parent="1">
                    <mxGeometry x="20" width="110" height="40" as="geometry"/>
                </mxCell>
                <mxCell id="5" value="Okno główne" style="swimlane;whiteSpace=wrap;html=1;" vertex="1" parent="1">
                    <mxGeometry x="280" y="80" width="280" height="260" as="geometry"/>
                </mxCell>
                <mxCell id="10" value="Menu główne" style="rounded=0;whiteSpace=wrap;html=1;" vertex="1" parent="5">
                    <mxGeometry x="20" y="40" width="240" height="40" as="geometry"/>
                </mxCell>
                <mxCell id="9" value="Konsola" style="swimlane;horizontal=0;whiteSpace=wrap;html=1;" vertex="1" parent="5">
                    <mxGeometry x="20" y="100" width="240" height="140" as="geometry"/>
                </mxCell>
                <mxCell id="4" value="Klawiatury" style="rounded=0;whiteSpace=wrap;html=1;" vertex="1" parent="9">
                    <mxGeometry x="40" y="20" width="80" height="40" as="geometry"/>
                </mxCell>
                <mxCell id="6" value="Manubria" style="rounded=0;whiteSpace=wrap;html=1;" vertex="1" parent="9">
                    <mxGeometry x="40" y="80" width="80" height="40" as="geometry"/>
                </mxCell>
                <mxCell id="7" value="Żaluzje" style="rounded=0;whiteSpace=wrap;html=1;" vertex="1" parent="9">
                    <mxGeometry x="140" y="80" width="80" height="40" as="geometry"/>
                </mxCell>
                <mxCell id="8" value="Crescendo" style="rounded=0;whiteSpace=wrap;html=1;" vertex="1" parent="9">
                    <mxGeometry x="140" y="20" width="80" height="40" as="geometry"/>
                </mxCell>
                <mxCell id="11" value="Konfiguracja organów" style="swimlane;whiteSpace=wrap;html=1;startSize=23;" vertex="1" parent="1">
                    <mxGeometry x="40" y="80" width="200" height="200" as="geometry"/>
                </mxCell>
                <mxCell id="13" value="Konfiguracja głosów" style="swimlane;whiteSpace=wrap;html=1;" vertex="1" parent="1">
                    <mxGeometry x="40" y="420" width="360" height="200" as="geometry"/>
                </mxCell>
                <mxCell id="22" value="Konfiguracja crescendo" style="swimlane;horizontal=0;whiteSpace=wrap;html=1;" vertex="1" parent="13">
                    <mxGeometry x="20" y="40" width="180" height="140" as="geometry"/>
                </mxCell>
                <mxCell id="23" value="Kolejność głosów" style="rounded=0;whiteSpace=wrap;html=1;" vertex="1" parent="22">
                    <mxGeometry x="40" y="20" width="120" height="40" as="geometry"/>
                </mxCell>
                <mxCell id="24" value="Czułość" style="rounded=0;whiteSpace=wrap;html=1;" vertex="1" parent="22">
                    <mxGeometry x="40" y="80" width="120" height="40" as="geometry"/>
                </mxCell>
                <mxCell id="25" value="Aktywne głosy" style="rounded=0;whiteSpace=wrap;html=1;" vertex="1" parent="13">
                    <mxGeometry x="220" y="40" width="120" height="40" as="geometry"/>
                </mxCell>
                <mxCell id="26" value="Routing do manuałów" style="rounded=0;whiteSpace=wrap;html=1;" vertex="1" parent="13">
                    <mxGeometry x="220" y="100" width="120" height="40" as="geometry"/>
                </mxCell>
                <mxCell id="14" value="Ustawienia silnika dźwięku" style="swimlane;whiteSpace=wrap;html=1;" vertex="1" parent="1">
                    <mxGeometry x="440" y="400" width="360" height="260" as="geometry"/>
                </mxCell>
                <mxCell id="27" value="Ustawienia pogłosu" style="swimlane;horizontal=0;whiteSpace=wrap;html=1;" vertex="1" parent="14">
                    <mxGeometry x="20" y="40" width="180" height="200" as="geometry"/>
                </mxCell>
                <mxCell id="28" value="Typ" style="rounded=0;whiteSpace=wrap;html=1;" vertex="1" parent="27">
                    <mxGeometry x="40" y="20" width="120" height="40" as="geometry"/>
                </mxCell>
                <mxCell id="29" value="Siła" style="rounded=0;whiteSpace=wrap;html=1;" vertex="1" parent="27">
                    <mxGeometry x="40" y="80" width="120" height="40" as="geometry"/>
                </mxCell>
                <mxCell id="30" value="" style="rounded=0;whiteSpace=wrap;html=1;" vertex="1" parent="27">
                    <mxGeometry x="40" y="140" width="120" height="40" as="geometry"/>
                </mxCell>
                <mxCell id="32" value="EQ" style="rounded=0;whiteSpace=wrap;html=1;" vertex="1" parent="14">
                    <mxGeometry x="220" y="40" width="120" height="40" as="geometry"/>
                </mxCell>
                <mxCell id="31" value="Limit polifonii" style="rounded=0;whiteSpace=wrap;html=1;" vertex="1" parent="14">
                    <mxGeometry x="220" y="100" width="120" height="40" as="geometry"/>
                </mxCell>
                <mxCell id="15" value="Konfiguracja żaluzji" style="swimlane;whiteSpace=wrap;html=1;" vertex="1" parent="1">
                    <mxGeometry x="40" y="640" width="340" height="260" as="geometry"/>
                </mxCell>
                <mxCell id="16" value="Ilość żaluzji" style="rounded=0;whiteSpace=wrap;html=1;" vertex="1" parent="15">
                    <mxGeometry x="200" y="40" width="120" height="40" as="geometry"/>
                </mxCell>
                <mxCell id="21" value="Routing głosów" style="rounded=0;whiteSpace=wrap;html=1;" vertex="1" parent="15">
                    <mxGeometry x="200" y="100" width="120" height="40" as="geometry"/>
                </mxCell>
                <mxCell id="18" value="Konfiguracja jednej&amp;nbsp; żaluzji" style="swimlane;horizontal=0;whiteSpace=wrap;html=1;" vertex="1" parent="15">
                    <mxGeometry x="20" y="40" width="160" height="200" as="geometry"/>
                </mxCell>
                <mxCell id="17" value="Zakres dB" style="rounded=0;whiteSpace=wrap;html=1;" vertex="1" parent="18">
                    <mxGeometry x="40" y="20" width="100" height="40" as="geometry"/>
                </mxCell>
                <mxCell id="19" value="Routing głosów" style="rounded=0;whiteSpace=wrap;html=1;" vertex="1" parent="18">
                    <mxGeometry x="40" y="80" width="100" height="40" as="geometry"/>
                </mxCell>
                <mxCell id="20" value="Typ EQ" style="rounded=0;whiteSpace=wrap;html=1;" vertex="1" parent="18">
                    <mxGeometry x="40" y="140" width="100" height="40" as="geometry"/>
                </mxCell>
            </root>
        </mxGraphModel>
    </diagram>
</mxfile>